<svg id="Group_1155" data-name="Group 1155" xmlns="http://www.w3.org/2000/svg" xmlns:xlink="http://www.w3.org/1999/xlink" width="617" height="370.6" viewBox="0 0 617 370.6">
  <defs>
    <clipPath id="clip-path">
      <rect id="Rectangle_916" data-name="Rectangle 916" width="617" height="370.6" fill="none"/>
    </clipPath>
  </defs>
  <g id="Group_1154" data-name="Group 1154" clip-path="url(#clip-path)">
    <path id="Path_2737" data-name="Path 2737" d="M263.9,195.1a2.043,2.043,0,0,0,1.9-1.9V7.2a2.042,2.042,0,0,0-1.9-1.9H227.8a2.043,2.043,0,0,0-1.9,1.9v186a2.042,2.042,0,0,0,1.9,1.9h36.1"/>
    <path id="Path_2738" data-name="Path 2738" d="M398.7,35.6C390.2,6.7,371.2,2.4,363.1,2.4h-2.4c-15.2,0-28.5,11.4-32.3,23.7L279.5,193.2a2.044,2.044,0,0,0,1.9,1.9h13.8c1,0,1.4-.9,1.9-1.4,0-.5,15.7-52.7,15.7-53.2s.9-.9,1.4-.9H384c1.4,0,2.8,1.4,3.3,2.8s14.2,48.9,14.2,50.3a3.652,3.652,0,0,0,3.3,2.4h37.5a2.043,2.043,0,0,0,1.9-1.9ZM376.8,122H322.2c-1.9,0-3.3-2.8-2.8-5.2.9-2.4,22.3-75.9,23.3-78.3.9-2.8,3.3-7.6,7.1-7.6s5.7,3.3,7.1,7.6,22.3,76.9,22.8,78.3c0,.9-1,5.2-2.9,5.2"/>
    <path id="Path_2739" data-name="Path 2739" d="M497.9,195.1a2.043,2.043,0,0,0,1.9-1.9V22.8a2.233,2.233,0,0,1,2.4-2.4h23.7c25.6,0,39.4,13.3,39.4,38.4,0,10.4-1.9,27.1-15.7,36.1-6.2,3.8-14.2,5.2-27.1,5.2-3.8,0-5.2.9-3.8,3.8,2.4,5.2,44.6,87.3,45.6,88.7.9,1.4,1.9,2.8,3.8,2.8h42.7c2.4,0,2.8-1.9,1.9-3.8-.9-1.4-45.6-79.3-46.5-80.7s-2.8-3.3-2.8-4.3c0-1.9.9-2.8,2.4-2.8,9,0,38.4-12.3,38.4-47.5,0-19.9-9-33.2-24.7-41.8C566.7,7.4,549.6,6,532,6H460.8a2.043,2.043,0,0,0-1.9,1.9v186a2.042,2.042,0,0,0,1.9,1.9h37"/>
    <rect id="Rectangle_913" data-name="Rectangle 913" width="609.4" height="3.8" transform="translate(7.6 219.8)"/>
    <path id="Path_2740" data-name="Path 2740" d="M47.5,241.6c16.6,0,25.6,9.5,29.4,15.2-2.4,1.9-1.4,0-3.3,1.9-1.4-2.4-9-13.3-23.7-13.3a26.312,26.312,0,0,0-26.1,26.1c0,13.8,9.5,20.9,15.7,24.2,6.2,2.8,12.8,5.7,17.6,7.6,4.3,2.4,24.2,10,24.2,32.7S59,370.6,42.4,370.6s-28-11.9-30.8-17.6a28.508,28.508,0,0,0,3.3-2.4c4.3,6.6,13.8,15.7,26.6,15.7,13.8,0,27.5-9,27.5-28.9,0-12.8-8.5-19-14.7-23.3-2.8-1.9-14.2-5.2-24.2-11.9-9.5-6.2-18-14.7-18-27.5-.2-18.9,19.2-33.1,35.4-33.1"/>
    <path id="Path_2741" data-name="Path 2741" d="M216.4,241.6c16.6,0,25.6,9.5,29.4,15.2-2.4,1.9-1.4,0-3.3,1.9-1.4-2.4-9-13.3-23.7-13.3a26.311,26.311,0,0,0-26.1,26.1c0,13.8,9.5,20.9,15.7,24.2,6.2,2.8,12.8,5.7,17.6,7.6,4.3,2.4,24.2,10,24.2,32.7s-22.3,34.6-38.9,34.6-28-11.9-30.8-17.6a28.427,28.427,0,0,0,3.3-2.4c4.3,6.6,13.8,15.7,26.6,15.7,13.8,0,27.5-9,27.5-28.9,0-12.8-8.5-19-14.7-23.3-2.8-1.9-14.2-5.2-24.2-11.9-9.5-6.2-18-14.7-18-27.5-.6-18.9,19.3-33.1,35.4-33.1"/>
    <path id="Path_2742" data-name="Path 2742" d="M582.3,241.6c16.6,0,25.6,9.5,29.4,15.2-2.4,1.9-1.4,0-3.3,1.9-1.4-2.4-9-13.3-23.7-13.3a26.312,26.312,0,0,0-26.1,26.1c0,13.8,9.5,20.9,15.7,24.2,6.2,2.8,12.8,5.7,17.6,7.6,4.3,2.4,24.2,10,24.2,32.7s-22.3,34.6-38.9,34.6-28-11.9-30.8-17.6a28.6,28.6,0,0,0,3.3-2.4c4.3,6.6,13.8,15.7,26.6,15.7,13.8,0,27.5-9,27.5-28.9,0-12.8-8.5-19-14.7-23.3-2.8-1.9-14.2-5.2-24.2-11.9-9.5-6.2-18-14.7-18-27.5-.6-18.9,19.3-33.1,35.4-33.1"/>
    <path id="Path_2743" data-name="Path 2743" d="M322.7,245.4v4.7H292.8V366.9H281V250.1H251.1v-4.7Z"/>
    <path id="Path_2744" data-name="Path 2744" d="M136.2,298.1h.5l38.9-52.7h6.2l-43.7,58.4v63.1H125.8V303.8L81.7,245.4H95.9Z"/>
    <path id="Path_2745" data-name="Path 2745" d="M406.7,245.4v4.7H346v53.6h56.9v4.7H346V362h61.7v4.7H338.9c-2.4,0-4.7-2.8-4.7-7.1V253.3a8.333,8.333,0,0,1,8.1-8.1c4.6.2,64.4.2,64.4.2"/>
    <path id="Path_2746" data-name="Path 2746" d="M427.6,243c3.3,0,7.6,1.4,10,7.1,1.9,5.2,37.5,95.4,37.5,95.4h.5s37.5-91.1,39.4-95.9,5.2-6.6,8.5-6.6c2.8,0,8.1,2.8,8.1,9.5V366.9H519.3V263c0-.9-.9-1.9-1.4-1.9-.9,0-1.4.9-1.9,1.4,0,.5-44.6,107.7-44.6,107.7L429.2,262.5c0-.5-.5-.9-1.4-.9a1.493,1.493,0,0,0-1.4,1.4V367.4h-7.1V253a8.635,8.635,0,0,1,8.3-10"/>
    <path id="Path_2747" data-name="Path 2747" d="M164.7,22.3v79.3a63.1,63.1,0,0,1-126.2,0V22.3H38A100.572,100.572,0,0,0,0,101.6,101.55,101.55,0,1,0,164.7,22.3" fill="#e63323"/>
    <path id="Path_2748" data-name="Path 2748" d="M158.5,17.6a100.778,100.778,0,0,0-113.8,0V38H158.5Z" fill="#e63323"/>
    <rect id="Rectangle_914" data-name="Rectangle 914" width="114.4" height="28.9" transform="translate(44.2 44.2)" fill="#e63323"/>
    <rect id="Rectangle_915" data-name="Rectangle 915" width="114.4" height="24.2" transform="translate(44.2 79.3)" fill="#e63323"/>
    <path id="Path_2749" data-name="Path 2749" d="M153.8,123.4c1.9-4.3,2.8-8.5,3.8-14.2H44.7c.5,3.8,2.8,12.3,3.8,14.2Z" fill="#e63323"/>
    <path id="Path_2750" data-name="Path 2750" d="M140.5,142.4c4.7-4.7,7.6-8.1,10-13.3H51.3a48.818,48.818,0,0,0,10.4,13.3h78.8" fill="#e63323"/>
  </g>
</svg>
